<svg width="31" height="32" viewBox="0 0 31 32" fill="none" xmlns="http://www.w3.org/2000/svg">
<path d="M15.5 0C6.93948 0 0 7.16333 0 16C0 24.8367 6.93948 32 15.5 32C24.0605 32 31 24.8367 31 16C31 7.16333 24.0605 0 15.5 0ZM21.461 18.0517C21.461 18.0517 22.8318 19.4483 23.1693 20.0967C23.179 20.11 23.1838 20.1233 23.187 20.13C23.3243 20.3683 23.3566 20.5533 23.2887 20.6917C23.1757 20.9217 22.7882 21.035 22.6558 21.045H20.234C20.066 21.045 19.7141 21 19.2878 20.6967C18.9601 20.46 18.6371 20.0717 18.3223 19.6933C17.8524 19.13 17.4456 18.6433 17.0355 18.6433C16.9834 18.6432 16.9316 18.6517 16.8821 18.6683C16.5721 18.7717 16.1749 19.2283 16.1749 20.445C16.1749 20.825 15.8843 21.0433 15.6792 21.0433H14.57C14.1922 21.0433 12.224 20.9067 10.4803 19.0083C8.34578 16.6833 6.42443 12.02 6.40828 11.9767C6.28719 11.675 6.53745 11.5133 6.81031 11.5133H9.2564C9.58255 11.5133 9.68911 11.7183 9.76338 11.9C9.85057 12.1117 10.1703 12.9533 10.695 13.9C11.5459 15.4433 12.0674 16.07 12.4856 16.07C12.564 16.069 12.641 16.0485 12.71 16.01C13.2557 15.6967 13.154 13.6883 13.1298 13.2717C13.1298 13.1933 13.1282 12.3733 12.8489 11.98C12.6486 11.695 12.308 11.5867 12.1013 11.5467C12.1849 11.4275 12.2952 11.3309 12.4226 11.265C12.7972 11.0717 13.4721 11.0433 14.1421 11.0433H14.5151C15.2417 11.0533 15.429 11.1017 15.6921 11.17C16.2249 11.3017 16.2362 11.6567 16.1894 12.8717C16.1749 13.2167 16.1604 13.6067 16.1604 14.0667C16.1604 14.1667 16.1555 14.2733 16.1555 14.3867C16.1394 15.005 16.12 15.7067 16.543 15.995C16.5982 16.0307 16.662 16.0498 16.7271 16.05C16.874 16.05 17.3164 16.05 18.5144 13.9283C18.8839 13.2454 19.205 12.5358 19.4751 11.805C19.4993 11.7617 19.5704 11.6283 19.6543 11.5767C19.7163 11.5441 19.785 11.5275 19.8545 11.5283H22.7301C23.0433 11.5283 23.2581 11.5767 23.2984 11.7017C23.3695 11.9 23.2855 12.505 21.9729 14.34L21.3868 15.1383C20.1968 16.7483 20.1968 16.83 21.461 18.0517Z" fill="white"/>
</svg>
