<svg width="56" height="56" viewBox="0 0 56 56" fill="none" xmlns="http://www.w3.org/2000/svg">
<path d="M36.982 55.1958H18.4195C17.971 55.1958 17.6074 54.8322 17.6074 54.3836C17.6074 53.9351 17.971 53.5715 18.4195 53.5715H36.982C37.4305 53.5715 37.7941 53.9351 37.7941 54.3836C37.7941 54.8322 37.4305 55.1958 36.982 55.1958Z" fill="#B48547"/>
<path d="M41.6227 4.14888H13.7789C13.3304 4.14888 12.9668 3.78528 12.9668 3.33677C12.9668 2.88825 13.3304 2.52466 13.7789 2.52466H41.6227C42.0712 2.52466 42.4348 2.88825 42.4348 3.33677C42.4348 3.78528 42.0712 4.14888 41.6227 4.14888Z" fill="#B48547"/>
<path d="M27.7008 55.1957C27.2523 55.1957 26.8887 54.8322 26.8887 54.3836V1.01645C26.8887 0.567939 27.2523 0.204346 27.7008 0.204346C28.1493 0.204346 28.5129 0.567939 28.5129 1.01645V54.3836C28.5129 54.8322 28.1493 55.1957 27.7008 55.1957Z" fill="#B48547"/>
<path d="M43.943 6.46919C42.2157 6.46919 40.8105 5.06401 40.8105 3.33677C40.8105 1.60953 42.2157 0.204346 43.943 0.204346C45.6702 0.204346 47.0754 1.60953 47.0754 3.33677C47.0754 5.06401 45.6702 6.46919 43.943 6.46919ZM43.943 1.82856C43.1114 1.82856 42.4348 2.50517 42.4348 3.33677C42.4348 4.16837 43.1114 4.84497 43.943 4.84497C44.7746 4.84497 45.4512 4.16837 45.4512 3.33677C45.4512 2.50517 44.7746 1.82856 43.943 1.82856Z" fill="#B48547"/>
<path d="M11.4586 6.46919C9.73135 6.46919 8.32617 5.06401 8.32617 3.33677C8.32617 1.60953 9.73135 0.204346 11.4586 0.204346C13.1858 0.204346 14.591 1.60953 14.591 3.33677C14.591 5.06401 13.1858 6.46919 11.4586 6.46919ZM11.4586 1.82856C10.627 1.82856 9.95039 2.50517 9.95039 3.33677C9.95039 4.16837 10.627 4.84497 11.4586 4.84497C12.2902 4.84497 12.9668 4.16837 12.9668 3.33677C12.9668 2.50517 12.2902 1.82856 11.4586 1.82856Z" fill="#B48547"/>
<path d="M17.2594 31.9926H5.65785C5.41085 31.9926 5.1772 31.8802 5.02313 31.6872C4.86894 31.4941 4.81117 31.2413 4.86593 31.0005L10.6667 5.47702C10.7507 5.1074 11.0795 4.84497 11.4586 4.84497C11.8378 4.84497 12.1666 5.1074 12.2506 5.47714L18.0513 31.0006C18.1061 31.2414 18.0483 31.4942 17.8941 31.6873C17.7401 31.8802 17.5064 31.9926 17.2594 31.9926ZM6.67531 30.3684H16.2421L11.4586 9.32143L6.67531 30.3684Z" fill="#B48547"/>
<path d="M11.4586 43.5942C5.25338 43.5942 0.205078 38.5459 0.205078 32.3407V31.1805C0.205078 30.732 0.568671 30.3684 1.01719 30.3684H21.9C22.3485 30.3684 22.7121 30.732 22.7121 31.1805V32.3407C22.7121 38.5459 17.6638 43.5942 11.4586 43.5942ZM1.8293 31.9926V32.3407C1.8293 37.6504 6.14891 41.97 11.4586 41.97C16.7683 41.97 21.0879 37.6504 21.0879 32.3407V31.9926H1.8293Z" fill="#B48547"/>
<path d="M49.7438 31.9926H38.1422C37.8952 31.9926 37.6616 31.8802 37.5075 31.6872C37.3534 31.4941 37.2955 31.2413 37.3503 31.0005L43.1511 5.47702C43.2351 5.1074 43.5637 4.84497 43.943 4.84497C44.3222 4.84497 44.6509 5.1074 44.7349 5.47714L50.5357 31.0006C50.5904 31.2414 50.5326 31.4942 50.3785 31.6873C50.2244 31.8803 49.9908 31.9926 49.7438 31.9926ZM39.1597 30.3684H48.7264L43.943 9.32143L39.1597 30.3684Z" fill="#B48547"/>
<path d="M43.943 43.5942C37.7378 43.5942 32.6895 38.5459 32.6895 32.3407V31.1805C32.6895 30.732 33.053 30.3684 33.5016 30.3684H54.3844C54.8329 30.3684 55.1965 30.732 55.1965 31.1805V32.3407C55.1965 38.5459 50.1482 43.5942 43.943 43.5942ZM34.3137 31.9926V32.3407C34.3137 37.6504 38.6333 41.97 43.943 41.97C49.2527 41.97 53.5723 37.6504 53.5723 32.3407V31.9926H34.3137Z" fill="#B48547"/>
</svg>
