<svg width="56" height="56" viewBox="0 0 56 56" fill="none" xmlns="http://www.w3.org/2000/svg">
<path d="M54.3834 1.82856H1.01621C0.567695 1.82856 0.204102 1.46497 0.204102 1.01645C0.204102 0.567939 0.567695 0.204346 1.01621 0.204346h34.3834C54.8319 0.204346 55.1955 0.567939 55.1955 1.01645C55.1955 1.46497 54.8319 1.82856 54.3834 1.82856Z" fill="#B48547"/>
<path d="M46.2633 55.1957H9.13828C8.68976 55.1957 8.32617 54.8322 8.32617 54.3836V1.01645C8.32617 0.567939 8.68976 0.204346 9.13828 0.204346h36.2633C46.7118 0.204346 47.0754 0.567939 47.0754 1.01645V54.3836C47.0754 54.8322 46.7118 55.1957 46.2633 55.1957ZM9.95039 53.5715h35.4512V1.82856H9.95039V53.5715Z" fill="#B48547"/>
<path d="M16.0992 30.8325C15.6507 30.8325 15.2871 30.4689 15.2871 30.0204V5.65708C15.2871 5.20856 15.6507 4.84497 16.0992 4.84497C16.5477 4.84497 16.9113 5.20856 16.9113 5.65708V30.0204C16.9113 30.4689 16.5477 30.8325 16.0992 30.8325Z" fill="#B48547"/>
<path d="M21.9 21.9731C21.4515 21.9731 21.0879 21.6095 21.0879 21.1609V5.65708C21.0879 5.20856 21.4515 4.84497 21.9 4.84497C22.3485 4.84497 22.7121 5.20856 22.7121 5.65708V21.1609C22.7121 21.6095 22.3485 21.9731 21.9 21.9731Z" fill="#B48547"/>
<path d="M39.3023 7.62935H32.3414C31.8929 7.62935 31.5293 7.26575 31.5293 6.81724C31.5293 6.36872 31.8929 6.00513 32.3414 6.00513H39.3023C39.7509 6.00513 40.1145 6.36872 40.1145 6.81724C40.1145 7.26575 39.7509 7.62935 39.3023 7.62935Z" fill="#B48547"/>
<path d="M39.3023 13.4301H32.3414C31.8929 13.4301 31.5293 13.0665 31.5293 12.618C31.5293 12.1695 31.8929 11.8059 32.3414 11.8059H39.3023C39.7509 11.8059 40.1145 12.1695 40.1145 12.618C40.1145 13.0665 39.7509 13.4301 39.3023 13.4301Z" fill="#B48547"/>
<path d="M39.3023 19.2309H32.3414C31.8929 19.2309 31.5293 18.8673 31.5293 18.4188C31.5293 17.9703 31.8929 17.6067 32.3414 17.6067H39.3023C39.7509 17.6067 40.1145 17.9703 40.1145 18.4188C40.1145 18.8673 39.7509 19.2309 39.3023 19.2309Z" fill="#B48547"/>
<path d="M30.0211 48.2348C27.0144 48.2348 24.5684 45.7887 24.5684 42.7821C24.5684 41.7558 24.8622 40.7464 25.4048 39.8817C24.8621 39.017 24.5684 38.0076 24.5684 36.9813C24.5684 33.9746 27.0144 31.5286 30.0211 31.5286C33.0278 31.5286 35.4738 33.9746 35.4738 36.9813C35.4738 38.0076 35.18 39.017 34.6374 39.8817C35.18 40.7464 35.4738 41.7558 35.4738 42.7821C35.4738 45.7887 33.0278 48.2348 30.0211 48.2348ZM30.0211 33.1528C27.9101 33.1528 26.1926 34.8703 26.1926 36.9813C26.1926 37.8606 26.4833 38.6879 27.0332 39.3737C27.2713 39.6705 27.2713 40.0928 27.0332 40.3897C26.4833 41.0755 26.1926 41.9028 26.1926 42.7821C26.1926 44.8931 27.9101 46.6106 30.0211 46.6106C32.1321 46.6106 33.8496 44.8931 33.8496 42.7821C33.8496 41.9028 33.5589 41.0755 33.009 40.3897C32.7709 40.0928 32.7709 39.6705 33.009 39.3737C33.5589 38.6879 33.8496 37.8606 33.8496 36.9813C33.8496 34.8703 32.1321 33.1528 30.0211 33.1528Z" fill="#B48547"/>
</svg>
