<svg width="56" height="56" viewBox="0 0 56 56" fill="none" xmlns="http://www.w3.org/2000/svg">
<path d="M27.6998 55.1957C20.3554 55.1957 13.4506 52.3357 8.25744 47.1424C3.06412 41.9492 0.204102 35.0444 0.204102 27.7C0.204102 20.3557 3.06412 13.4509 8.25744 8.25769C13.4506 3.06436 20.3554 0.204346 27.6998 0.204346C35.0442 0.204346 41.949 3.06436 47.1422 8.25769C52.3355 13.4509 55.1955 20.3557 55.1955 27.7C55.1955 35.0444 52.3355 41.9492 47.1422 47.1424C41.949 52.3357 35.0442 55.1957 27.6998 55.1957ZM27.6998 1.82856C13.4343 1.82856 1.82832 13.4345 1.82832 27.7C1.82832 41.9657 13.4343 53.5715 27.6998 53.5715C41.9654 53.5715 53.5713 41.9657 53.5713 27.7C53.5713 13.4345 41.9654 1.82856 27.6998 1.82856Z" fill="#B48547"/>
<path d="M14.9381 41.2738C14.7302 41.2738 14.5225 41.1945 14.3639 41.036C14.0467 40.7188 14.0467 40.2046 14.3639 39.8875L39.8873 14.364C40.2045 14.047 40.7187 14.047 41.0359 14.364C41.3529 14.6811 41.3529 15.1954 41.0359 15.5125L15.5124 41.0359C15.3538 41.1945 15.146 41.2738 14.9381 41.2738Z" fill="#B48547"/>
<path d="M20.7389 25.0317C17.7322 25.0317 15.2861 22.5856 15.2861 19.579C15.2861 16.5723 17.7322 14.1262 20.7389 14.1262C23.7455 14.1262 26.1916 16.5723 26.1916 19.579C26.1916 22.5856 23.7455 25.0317 20.7389 25.0317ZM20.7389 15.7504C18.6278 15.7504 16.9104 17.4679 16.9104 19.579C16.9104 21.69 18.6278 23.4075 20.7389 23.4075C22.8499 23.4075 24.5674 21.69 24.5674 19.579C24.5674 17.4679 22.8499 15.7504 20.7389 15.7504Z" fill="#B48547"/>
<path d="M36.9811 40.1137C33.9744 40.1137 31.5283 37.6676 31.5283 34.661C31.5283 31.6543 33.9744 29.2083 36.9811 29.2083C39.9877 29.2083 42.4338 31.6543 42.4338 34.661C42.4338 37.6676 39.9877 40.1137 36.9811 40.1137ZM36.9811 30.8325C34.87 30.8325 33.1525 32.55 33.1525 34.661C33.1525 36.772 34.87 38.4895 36.9811 38.4895C39.0921 38.4895 40.8096 36.772 40.8096 34.661C40.8096 32.55 39.0921 30.8325 36.9811 30.8325Z" fill="#B48547"/>
</svg>
