<svg width="56" height="56" viewBox="0 0 56 56" fill="none" xmlns="http://www.w3.org/2000/svg">
<path d="M27.6998 55.1957C20.3554 55.1957 13.4506 52.3357 8.25744 47.1424C3.06412 41.9492 0.204102 35.0444 0.204102 27.7C0.204102 20.3557 3.06412 13.4509 8.25744 8.25769C13.4506 3.06436 20.3554 0.204346 27.6998 0.204346C35.0442 0.204346 41.949 3.06436 47.1422 8.25769C52.3355 13.4509 55.1955 20.3557 55.1955 27.7C55.1955 35.0444 52.3355 41.9492 47.1422 47.1424C41.949 52.3357 35.0442 55.1957 27.6998 55.1957ZM27.6998 1.82856C13.4343 1.82856 1.82832 13.4345 1.82832 27.7C1.82832 41.9657 13.4343 53.5715 27.6998 53.5715C41.9654 53.5715 53.5713 41.9657 53.5713 27.7C53.5713 13.4345 41.9654 1.82856 27.6998 1.82856Z" fill="#B48547"/>
<path d="M27.6998 55.1957C24.2576 55.1957 21.0796 52.2467 18.7515 46.892C16.5168 41.7522 15.2861 34.9364 15.2861 27.7C15.2861 20.4637 16.5168 13.6478 18.7515 8.50805C21.0797 3.15335 24.2576 0.204346 27.6998 0.204346C31.1421 0.204346 34.32 3.15335 36.6481 8.50805C38.8828 13.6478 40.1135 20.4637 40.1135 27.7C40.1135 34.9364 38.8828 41.7522 36.6481 46.892C34.32 52.2467 31.1421 55.1957 27.6998 55.1957ZM27.6998 1.82856C24.9842 1.82856 22.2656 4.49924 20.241 9.15576C18.0932 14.0957 16.9104 20.6816 16.9104 27.7C16.9104 34.7185 18.0932 41.3044 20.241 46.2444C22.2656 50.9008 24.9842 53.5715 27.6998 53.5715C30.4154 53.5715 33.1341 50.9008 35.1586 46.2444C37.3065 41.3044 38.4893 34.7185 38.4893 27.7C38.4893 20.6816 37.3065 14.0957 35.1586 9.15576C33.1341 4.49924 30.4154 1.82856 27.6998 1.82856Z" fill="#B48547"/>
<path d="M27.6998 44.7543C20.4255 44.7543 13.5748 43.0228 8.40942 39.8788C3.11818 36.658 0.204102 32.3329 0.204102 27.7C0.204102 23.0673 3.11818 18.7421 8.40942 15.5214C13.5748 12.3773 20.4255 10.6458 27.6998 10.6458C34.9741 10.6458 41.8249 12.3773 46.9902 15.5214C52.2815 18.7421 55.1955 23.0673 55.1955 27.7C55.1955 32.3329 52.2815 36.658 46.9902 39.8788C41.8249 43.0228 34.9741 44.7543 27.6998 44.7543ZM27.6998 12.27C20.7193 12.27 14.1683 13.9174 9.2539 16.9087C4.46547 19.8235 1.82832 23.656 1.82832 27.7C1.82832 31.7441 4.46547 35.5767 9.2539 38.4914C14.1683 41.4827 20.7193 43.1301 27.6998 43.1301C34.6805 43.1301 41.2313 41.4827 46.1457 38.4914C50.9342 35.5767 53.5713 31.7441 53.5713 27.7C53.5713 23.656 50.9342 19.8235 46.1457 16.9087C41.2313 13.9174 34.6803 12.27 27.6998 12.27Z" fill="#B48547"/>
<path d="M54.3834 28.5122H1.01621C0.567695 28.5122 0.204102 28.1486 0.204102 27.7C0.204102 27.2515 0.567695 26.8879 1.01621 26.8879h34.3834C54.8319 26.8879 55.1955 27.2515 55.1955 27.7C55.1955 28.1486 54.8319 28.5122 54.3834 28.5122Z" fill="#B48547"/>
<path d="M27.6998 55.1957C27.2513 55.1957 26.8877 54.8322 26.8877 54.3836V1.01645C26.8877 0.567939 27.2513 0.204346 27.6998 0.204346C28.1483 0.204346 28.5119 0.567939 28.5119 1.01645V54.3836C28.5119 54.8322 28.1483 55.1957 27.6998 55.1957Z" fill="#B48547"/>
</svg>
