<svg width="56" height="56" viewBox="0 0 56 56" fill="none" xmlns="http://www.w3.org/2000/svg">
<path d="M54.3829 1.82856H1.01572C0.567206 1.82856 0.203613 1.46497 0.203613 1.01645C0.203613 0.567939 0.567206 0.204346 1.01572 0.204346h34.3829C54.8314 0.204346 55.195 0.567939 55.195 1.01645C55.195 1.46497 54.8314 1.82856 54.3829 1.82856Z" fill="#B48547"/>
<path d="M38.2959 41.2739H17.1036C10.344 41.2739 4.84473 35.7745 4.84473 29.0149V1.01645C4.84473 0.567939 5.20832 0.204346 5.65684 0.204346h39.7428C50.1913 0.204346 50.5549 0.567939 50.5549 1.01645V29.0149C50.5549 35.7745 45.0555 41.2739 38.2959 41.2739ZM6.46895 1.82856V29.0149C6.46895 34.8789 11.2396 39.6497 17.1036 39.6497H38.2959C44.1599 39.6497 48.9307 34.8789 48.9307 29.0149V1.82856H6.46895Z" fill="#B48547"/>
<path d="M10.297 55.1959C10.175 55.1959 10.0511 55.1683 9.93446 55.1099C9.53327 54.9094 9.37074 54.4215 9.57121 54.0203L16.5321 40.0985C16.7327 39.6974 17.2207 39.5347 17.6218 39.7353C18.0229 39.9359 18.1855 40.4238 17.985 40.8249L11.0241 54.7468C10.8817 55.0313 10.5948 55.1959 10.297 55.1959Z" fill="#B48547"/>
<path d="M43.9429 55.196C43.6449 55.196 43.3581 55.0315 43.2158 54.7469L36.2549 40.8251C36.0543 40.4239 36.2169 39.936 36.618 39.7354C37.0192 39.5346 37.507 39.6974 37.7076 40.0986L44.6685 54.0204C44.8691 54.4216 44.7065 54.9095 44.3054 55.1101C44.1888 55.1684 44.0649 55.196 43.9429 55.196Z" fill="#B48547"/>
<path d="M13.7277 31.091C13.5407 31.091 13.3527 31.0268 13.1996 30.8954C12.8591 30.6035 12.8196 30.0909 13.1115 29.7504L20.0725 21.6293C20.2603 21.4101 20.5505 21.3072 20.8344 21.3587L33.0188 23.574L39.6987 11.3274C39.9136 10.9338 40.4069 10.7885 40.8005 11.0034C41.1944 11.2181 41.3394 11.7114 41.1247 12.1052L34.1637 24.8669C33.996 25.1744 33.6505 25.34 33.3056 25.277L21.0025 23.0401L14.3449 30.8073C14.1841 30.9947 13.9566 31.091 13.7277 31.091Z" fill="#B48547"/>
<path d="M41.6205 16.8936C41.2003 16.8936 40.8445 16.5697 40.8117 16.1437L40.4502 11.4396L36.0354 13.104C35.6157 13.2623 35.1472 13.0503 34.989 12.6305C34.8307 12.2109 35.0427 11.7424 35.4623 11.5842L40.8902 9.53789C41.1294 9.44763 41.3969 9.47524 41.6129 9.61272C41.8284 9.74997 41.967 9.98072 41.9866 10.2356L42.4311 16.0193C42.4655 16.4666 42.1308 16.857 41.6836 16.8913C41.6625 16.8928 41.6414 16.8936 41.6205 16.8936Z" fill="#B48547"/>
</svg>
